<svg width="24" height="24" viewBox="0 0 24 24" fill="none" xmlns="http://www.w3.org/2000/svg">
<path d="M6.3743 12.7039C5.0838 12.7039 4.02793 12.2682 3.2067 11.3966C2.40223 10.5084 2 9.32682 2 7.85195C2 6.37709 2.40223 5.20391 3.2067 4.3324C4.02793 3.44413 5.0838 3 6.3743 3C7.66481 3 8.71229 3.44413 9.51676 4.3324C10.3212 5.20391 10.7235 6.37709 10.7235 7.85195C10.7235 9.32682 10.3212 10.5084 9.51676 11.3966C8.71229 12.2682 7.66481 12.7039 6.3743 12.7039ZM16.8575 3.20112H19.8492L7.8324 20.7989H4.84078L16.8575 3.20112ZM6.3743 10.6425C6.94413 10.6425 7.38827 10.4078 7.7067 9.93855C8.0419 9.46927 8.2095 8.77374 8.2095 7.85195C8.2095 6.93017 8.0419 6.23464 7.7067 5.76536C7.38827 5.29609 6.94413 5.06145 6.3743 5.06145C5.82123 5.06145 5.3771 5.30447 5.0419 5.7905C4.7067 6.25978 4.53911 6.94693 4.53911 7.85195C4.53911 8.75698 4.7067 9.45251 5.0419 9.93855C5.3771 10.4078 5.82123 10.6425 6.3743 10.6425ZM18.3156 21C17.4777 21 16.7235 20.8073 16.0531 20.4218C15.3994 20.0196 14.8883 19.4497 14.5196 18.7123C14.1508 17.9749 13.9665 17.1201 13.9665 16.148C13.9665 15.176 14.1508 14.3212 14.5196 13.5838C14.8883 12.8464 15.3994 12.2849 16.0531 11.8994C16.7235 11.4972 17.4777 11.2961 18.3156 11.2961C19.6061 11.2961 20.6536 11.7402 21.4581 12.6285C22.2793 13.5 22.6899 14.6732 22.6899 16.148C22.6899 17.6229 22.2793 18.8045 21.4581 19.6927C20.6536 20.5642 19.6061 21 18.3156 21ZM18.3156 18.9385C18.8855 18.9385 19.3296 18.7039 19.648 18.2346C19.9832 17.7486 20.1508 17.0531 20.1508 16.148C20.1508 15.243 19.9832 14.5559 19.648 14.0866C19.3296 13.6006 18.8855 13.3575 18.3156 13.3575C17.7626 13.3575 17.3184 13.5922 16.9832 14.0615C16.648 14.5307 16.4804 15.2263 16.4804 16.148C16.4804 17.0698 16.648 17.7654 16.9832 18.2346C17.3184 18.7039 17.7626 18.9385 18.3156 18.9385Z" fill="#ACB1C4"/>
</svg>
