<svg width="24" height="24" viewBox="0 0 24 24" fill="none" xmlns="http://www.w3.org/2000/svg">
<path d="M2 11.1659C2.02165 11.0955 2.0487 11.0306 2.07035 10.9602C2.23269 10.4299 2.57361 10.0457 3.09852 9.87254C3.58014 9.71019 4.08341 9.59114 4.60291 9.45044C5.18193 11.6042 5.75554 13.7417 6.33457 15.9063C5.85295 16.0308 5.37674 16.1769 4.88971 16.2797C4.20787 16.4258 3.62885 16.2148 3.20675 15.6574C3.06606 15.468 2.96865 15.2353 2.90371 15.0026C2.60067 13.9203 2.31928 12.8272 2.03247 11.7395C2.02706 11.7233 2.01082 11.707 2 11.6908C2 11.5176 2 11.3445 2 11.1659Z" fill="#ACB1C4"/>
<path d="M14.3273 3C14.6195 3.02165 14.8251 3.20022 14.9117 3.53032C15.1606 4.4665 15.4096 5.40268 15.6639 6.34427C16.5135 9.51538 17.3631 12.6811 18.2073 15.8522C18.3534 16.3933 18.0774 16.7072 17.52 16.6423C15.5611 16.4312 13.6021 16.2256 11.6432 16.0199C10.3282 15.8792 9.01324 15.7331 7.69825 15.5978C7.57379 15.587 7.51426 15.5491 7.4818 15.4193C6.94606 13.3737 6.39951 11.3336 5.84213 9.2881C5.80966 9.16364 5.83672 9.0987 5.93953 9.02294C8.6182 7.07482 11.2915 5.12129 13.9701 3.17317C14.0783 3.10282 14.2082 3.05953 14.3273 3Z" fill="#ACB1C4"/>
<path d="M8.51538 16.9399C9.15393 17.0048 9.76543 17.0698 10.3715 17.1347C11.0912 17.2105 11.8055 17.2916 12.5253 17.362C12.6606 17.3728 12.7363 17.4215 12.7904 17.5514C13.0177 18.1142 13.2612 18.6715 13.4939 19.2289C13.7915 19.9487 13.4723 20.6197 12.7201 20.8199C12.3792 20.9119 12.0436 21.0634 11.6757 20.9714C11.4159 20.9065 11.194 20.782 11.0425 20.5656C10.2092 19.3859 9.38121 18.2008 8.55326 17.0211C8.53703 17.0156 8.53703 16.994 8.51538 16.9399Z" fill="#ACB1C4"/>
<path d="M22.78 13.4224C22.7313 13.8391 22.3254 14.1313 21.9845 13.9582C21.465 13.693 20.9617 13.39 20.4639 13.0815C20.2149 12.93 20.1716 12.6107 20.3177 12.3618C20.4639 12.1183 20.7669 12.0101 21.0212 12.1453C21.5245 12.4159 22.0224 12.7027 22.504 13.0058C22.6284 13.0923 22.688 13.2817 22.78 13.4224Z" fill="#ACB1C4"/>
<path d="M18.7863 5.63537C18.3588 5.59749 18.0612 5.19164 18.2452 4.83448C18.5103 4.31498 18.8134 3.81172 19.1218 3.31386C19.2679 3.08117 19.5872 3.03247 19.8253 3.16775C20.0634 3.30304 20.1933 3.60067 20.0634 3.84419C19.7874 4.36368 19.4898 4.87777 19.1759 5.38104C19.1002 5.50009 18.9216 5.54879 18.7863 5.63537Z" fill="#ACB1C4"/>
<path d="M21.6436 8.49803C21.6381 8.73613 21.5029 8.94718 21.2648 9.01212C20.729 9.16364 20.1879 9.30975 19.6467 9.44503C19.3707 9.51538 19.0785 9.32057 19.0082 9.04459C18.9378 8.74696 19.0839 8.46556 19.3816 8.37357C19.7874 8.25451 20.1987 8.1517 20.61 8.04347C20.7344 8.011 20.8589 7.97312 20.9834 7.94606C21.3351 7.88112 21.649 8.14087 21.6436 8.49803Z" fill="#ACB1C4"/>
</svg>
