<svg width="24" height="24" viewBox="0 0 24 24" fill="none" xmlns="http://www.w3.org/2000/svg">
<path d="M3 3.92308C3 3.41328 3.41328 3 3.92308 3H10.3846C10.8944 3 11.3077 3.41328 11.3077 3.92308V10.3846C11.3077 10.8944 10.8944 11.3077 10.3846 11.3077H3.92308C3.41328 11.3077 3 10.8944 3 10.3846V3.92308Z" fill="#ACB1C4"/>
<path d="M3 13.6154C3 13.1056 3.41328 12.6923 3.92308 12.6923H10.3846C10.8944 12.6923 11.3077 13.1056 11.3077 13.6154V20.0769C11.3077 20.5867 10.8944 21 10.3846 21H3.92308C3.41328 21 3 20.5867 3 20.0769V13.6154Z" fill="#ACB1C4"/>
<path d="M12.6923 13.6154C12.6923 13.1056 13.1056 12.6923 13.6154 12.6923H20.0769C20.5867 12.6923 21 13.1056 21 13.6154V20.0769C21 20.5867 20.5867 21 20.0769 21H13.6154C13.1056 21 12.6923 20.5867 12.6923 20.0769V13.6154Z" fill="#ACB1C4"/>
<path d="M12.6923 3.92308C12.6923 3.41328 13.1056 3 13.6154 3H20.0769C20.5867 3 21 3.41328 21 3.92308V10.3846C21 10.8944 20.5867 11.3077 20.0769 11.3077H13.6154C13.1056 11.3077 12.6923 10.8944 12.6923 10.3846V3.92308Z" fill="#ACB1C4"/>
</svg>
