<svg width="24" height="24" viewBox="0 0 24 24" fill="none" xmlns="http://www.w3.org/2000/svg">
<path d="M23 12.3677C22.8622 12.6719 22.6269 12.7867 22.2939 12.7638C21.9667 12.7466 21.6395 12.758 21.3296 12.758C20.8531 16.96 18.7464 19.9048 14.6937 21.1964C11.6341 22.1723 8.77534 21.5351 6.18643 19.5891C6.85232 18.8141 7.49524 18.0564 8.13816 17.3044C10.4975 18.9003 12.9199 19.1012 15.371 17.6029C17.3113 16.4204 18.1838 14.3768 18.2527 12.7523C17.9083 12.7523 17.5696 12.7523 17.2252 12.7523C17.1161 12.7523 17.0128 12.7523 16.9037 12.7523C16.6626 12.758 16.4847 12.6547 16.3871 12.4366C16.2838 12.2184 16.3297 12.0175 16.4847 11.8396C16.9152 11.3459 17.34 10.858 17.7705 10.3643C18.3962 9.64676 19.0219 8.92921 19.6648 8.19444C19.8772 8.43554 20.0839 8.66516 20.2848 8.90051C21.0999 9.83619 21.9151 10.7661 22.7245 11.7018C22.822 11.8109 22.9082 11.9372 22.9943 12.052C23 12.1668 23 12.2644 23 12.3677Z" fill="#ACB1C4"/>
<path d="M5.72146 12.7408C6.18643 12.7408 6.61122 12.7466 7.03027 12.7408C7.28859 12.7351 7.50098 12.8097 7.61005 13.0565C7.72485 13.3034 7.63875 13.51 7.47228 13.7052C6.45049 14.8762 5.4287 16.0473 4.40691 17.2183C4.38969 17.2413 4.37247 17.2642 4.34951 17.3044C4.30359 17.2585 4.26915 17.2355 4.24618 17.2068C3.2244 16.0358 2.20261 14.8648 1.18656 13.6937C0.939726 13.4124 0.933986 13.0795 1.1923 12.8843C1.30137 12.7982 1.4621 12.758 1.60561 12.7523C1.95577 12.7293 2.30594 12.7408 2.6561 12.7408C2.66758 12.7408 2.67906 12.7293 2.66184 12.7408C2.81683 8.09112 4.93503 4.85354 9.40104 3.41845C12.8108 2.32204 16.2149 3.51029 18.2527 5.4735C17.6098 6.22549 16.9669 6.98322 16.3297 7.72373C13.8498 5.74904 11.2265 5.3874 8.52277 7.12099C6.52512 8.39536 5.65832 10.3471 5.72146 12.7408Z" fill="#ACB1C4"/>
</svg>
