<svg width="24" height="24" viewBox="0 0 24 24" fill="none" xmlns="http://www.w3.org/2000/svg">
<path d="M21.2808 7.55602C23.2227 7.15768 23.5463 7.23237 23.7206 8.10373C23.9696 9.34855 23.5214 10.0456 22.3513 10.2697C23.2725 12.2116 23.148 14.278 23.148 16.3444C23.148 17.4398 23.1729 18.5353 23.148 19.6307C23.1231 20.5021 22.6003 21 21.7538 21C21.2808 21 20.8077 21 20.3347 21C19.5131 20.9751 18.9903 20.4772 18.9654 19.6307C18.9405 19.1826 18.9654 18.7344 18.9654 18.2614C14.2351 18.2614 9.55463 18.2614 4.79945 18.2614C4.79945 18.7095 4.79945 19.1079 4.79945 19.5311C4.77455 20.4772 4.27662 21 3.33057 21C2.85754 21 2.38451 21 1.91148 21C1.21438 20.9751 0.616874 20.5021 0.64177 19.8299C0.666667 17.3402 0.691563 14.8257 0.816044 12.3361C0.84094 11.639 1.16459 10.9419 1.33887 10.2448C0.24343 10.0207 -0.179806 9.32365 0.0691563 8.07884C0.168741 7.50622 0.542185 7.15768 1.06501 7.23237C1.53804 7.28216 2.01106 7.43153 2.50899 7.55602C2.88243 6.65975 3.25588 5.76349 3.62932 4.86722C4.15214 3.62241 5.04841 3 6.39281 3C10.0277 3 13.7123 3 17.397 3C18.7165 3 19.6376 3.62241 20.1355 4.81743C20.4841 5.6888 20.8575 6.56017 21.2061 7.43153C21.2061 7.45643 21.231 7.48133 21.2808 7.55602ZM11.87 10.444C14.3845 10.444 16.9239 10.444 19.4384 10.444C20.3596 10.444 20.5837 10.0954 20.2351 9.24896C19.6874 7.87967 19.1148 6.51037 18.5422 5.14108C18.2434 4.39419 17.6957 3.99585 16.8492 3.99585C13.5131 3.99585 10.2019 3.99585 6.86584 3.99585C6.01936 3.99585 5.47164 4.39419 5.17289 5.16597C4.82434 6.03734 4.4509 6.90871 4.10235 7.78008C3.85339 8.37759 3.60443 8.95021 3.40526 9.54772C3.23098 10.0456 3.43015 10.3444 3.97787 10.4191C4.15214 10.444 4.35131 10.444 4.52559 10.444C6.96542 10.444 9.43015 10.444 11.87 10.444ZM5.27247 13.1079C4.72476 13.1079 4.17704 13.1079 3.60443 13.1079C3.18119 13.1079 2.98202 13.3071 2.98202 13.7303C2.98202 14.2282 2.98202 14.7012 2.98202 15.1992C2.98202 15.6224 3.18119 15.8465 3.57953 15.8465C4.69986 15.8465 5.82019 15.8465 6.94052 15.8465C7.31397 15.8465 7.53803 15.6473 7.53803 15.2739C7.53803 14.751 7.53803 14.2282 7.53803 13.7054C7.53803 13.3319 7.33886 13.1079 6.94052 13.1328C6.4177 13.1079 5.84509 13.1079 5.27247 13.1079ZM18.4177 13.1079C17.8451 13.1079 17.2725 13.1079 16.6999 13.1079C16.3015 13.1079 16.1024 13.3071 16.1024 13.7054C16.1024 14.2033 16.1024 14.7012 16.1024 15.2241C16.1024 15.6473 16.3264 15.8465 16.7248 15.8465C17.8451 15.8465 18.9654 15.8465 20.0858 15.8465C20.4592 15.8465 20.6833 15.6473 20.6833 15.249C20.6833 14.751 20.6833 14.278 20.6833 13.7801C20.6833 13.3319 20.4841 13.1079 20.0111 13.1079C19.4882 13.1079 18.9405 13.1079 18.4177 13.1079Z" fill="#ACB1C4"/>
</svg>
