<svg width="24" height="24" viewBox="0 0 24 24" fill="none" xmlns="http://www.w3.org/2000/svg">
<path d="M7 2C7.04032 8.66667 7.0672 15.3333 7.10753 22C8.29032 22 9.44624 22 10.5887 22C10.6559 17.2285 11.207 12.4973 11.8522 7.77957C11.879 7.79301 11.9059 7.79301 11.9059 7.80645C11.9462 7.87366 11.9866 7.94086 12 8.0215C12.1613 8.62634 12.3495 9.21774 12.457 9.83602C12.8468 12.0134 13.0081 14.2312 13.1156 16.4355C13.2097 18.1962 13.2634 19.957 13.3306 21.7312C13.3306 21.7849 13.3441 21.8387 13.3441 21.8925C14.5806 21.8925 15.8038 21.8925 17.0403 21.8925C17.0941 15.2527 17.121 8.62634 17.1613 2C13.7742 2 10.3871 2 7 2ZM8.3172 6.09946L7.96774 6.00538L8.66667 3.19624L9.01613 3.29032L8.3172 6.09946ZM15.8441 6.09946L15.1452 3.29032L15.4946 3.19624L16.1935 6.00538L15.8441 6.09946Z" fill="#ACB1C4"/>
</svg>
