<svg width="24" height="24" viewBox="0 0 24 24" fill="none" xmlns="http://www.w3.org/2000/svg">
<path d="M3.47444 21.9951C3.1076 21.8386 3 21.5549 3 21.1685C3.00978 15.0449 3.00489 8.92121 3.00489 2.79756C3.00489 2.70462 3 2.61169 3.01467 2.52365C3.06358 2.21552 3.33749 1.99052 3.65052 2.00031C3.96844 2.01009 4.23256 2.25954 4.25212 2.58235C4.26679 2.79756 4.25212 3.00787 4.25212 3.24754C4.34994 3.24754 4.4282 3.24754 4.51135 3.24754C9.59809 3.24754 14.6848 3.24754 19.7716 3.24754C20.0748 3.24754 20.3292 3.3209 20.471 3.61437C20.5982 3.88338 20.515 4.11815 20.3438 4.33825C19.5759 5.3556 18.808 6.37784 18.045 7.40008C17.6782 7.88919 17.3113 8.3783 16.9347 8.87719C17.2673 9.31739 17.595 9.75759 17.9227 10.1929C18.72 11.2543 19.5172 12.3156 20.3145 13.377C20.3585 13.4357 20.4025 13.4895 20.4368 13.5531C20.6715 13.9541 20.4368 14.4286 19.977 14.4922C19.8938 14.5019 19.8058 14.5019 19.7227 14.5019C14.6604 14.5019 9.60298 14.5019 4.5407 14.5019C4.45755 14.5019 4.36951 14.5019 4.25701 14.5019C4.25701 14.5851 4.25701 14.6585 4.25701 14.7318C4.25701 16.879 4.25212 19.0262 4.2619 21.1734C4.2619 21.5598 4.1543 21.8435 3.78747 22C3.68475 21.9951 3.57715 21.9951 3.47444 21.9951Z" fill="#ACB1C4"/>
</svg>
