<svg width="24" height="24" viewBox="0 0 24 24" fill="none" xmlns="http://www.w3.org/2000/svg">
<path d="M19.3411 7.87408C14.3044 7.87408 9.26776 7.87408 4.22131 7.87408C4.26043 8.38264 4.29955 8.88142 4.34356 9.37531C4.44136 10.5733 4.54405 11.7714 4.64185 12.9743C4.75432 14.3142 4.86678 15.6589 4.97925 16.9988C5.07216 18.1137 5.15529 19.2286 5.25798 20.3435C5.34111 21.2188 5.87412 21.791 6.73965 21.9719C6.75921 21.9768 6.77388 21.9914 6.78855 21.9963C10.1235 21.9963 13.4536 21.9963 16.7885 21.9963C17.1651 21.9034 17.5123 21.7665 17.7959 21.4878C18.1773 21.1112 18.3044 20.6418 18.3436 20.1284C18.5343 17.7812 18.7299 15.434 18.9255 13.0868C19.0673 11.3704 19.2091 9.64914 19.3509 7.93276C19.3509 7.92298 19.346 7.90342 19.3411 7.87408ZM9.09661 19.6051C8.87656 19.7078 8.65163 19.6834 8.48537 19.5073C8.38757 19.4046 8.29466 19.2433 8.28488 19.1015C8.19197 17.835 8.11862 16.5733 8.04038 15.3068L7.69319 9.73716C7.6883 9.73716 7.6883 9.73716 7.68341 9.73716C7.6883 9.65892 7.68341 9.58068 7.70297 9.50244C7.76165 9.21394 8.02082 9.01834 8.31422 9.0379C8.61251 9.05746 8.83744 9.2824 8.857 9.60024L9.35089 17.522C9.38023 18.0306 9.41935 18.5342 9.43891 19.0428C9.45358 19.302 9.33133 19.4976 9.09661 19.6051ZM12.3729 18.9156C12.3729 19.3851 12.1577 19.6589 11.7861 19.6589C11.4145 19.6589 11.1993 19.3851 11.1993 18.9205C11.1993 17.3998 11.1993 15.8741 11.1993 14.3533C11.1993 12.7983 11.1993 11.2433 11.1993 9.68826C11.1993 9.22861 11.5758 8.93521 11.9768 9.08191C12.2164 9.16504 12.3436 9.34597 12.368 9.59046C12.3729 9.65403 12.3729 9.72249 12.3729 9.78606C12.3729 12.8227 12.3729 15.8692 12.3729 18.9156ZM15.8448 10.3924L15.434 16.9939C15.39 17.6687 15.3509 18.3435 15.3118 19.0183C15.2873 19.4144 15.0428 19.6687 14.6956 19.654C14.3484 19.6394 14.1186 19.3606 14.1382 18.9645C14.2311 17.4046 14.3338 15.8496 14.4316 14.2897L14.7201 9.59535C14.7445 9.26773 15.0184 9.02323 15.3313 9.03301C15.6492 9.04279 15.8937 9.30685 15.8839 9.64425C15.8839 9.89853 15.8595 10.143 15.8448 10.3924Z" fill="#ACB1C4"/>
<path d="M15.8888 4.34841C17.0575 4.34841 18.1969 4.34841 19.3362 4.34841C19.9524 4.34841 20.412 4.70049 20.5392 5.25795C20.6907 5.91809 20.2604 6.55868 19.5905 6.67115C19.5025 6.68582 19.4096 6.69071 19.3167 6.69071C14.2995 6.69071 9.27754 6.69071 4.26043 6.69071C3.62962 6.69071 3.16507 6.34352 3.03304 5.78606C2.857 5.04279 3.40468 4.36308 4.19197 4.3533C4.96458 4.34352 5.74209 4.3533 6.51471 4.3533C6.89612 4.3533 7.27754 4.3533 7.69808 4.3533C7.69808 4.08924 7.67363 3.84474 7.70297 3.60024C7.81055 2.66137 8.50493 2.02078 9.44869 2.011C11.0037 1.99633 12.5587 1.99633 14.1137 2.011C15.1308 2.02078 15.8643 2.77384 15.8888 3.78606C15.8937 3.96699 15.8888 4.14792 15.8888 4.34841ZM8.857 4.33863C10.8228 4.33863 12.7641 4.33863 14.7152 4.33863C14.7152 4.16259 14.7152 4.00122 14.7152 3.83985C14.7103 3.40954 14.4805 3.17971 14.0502 3.17971C13.4927 3.17971 12.9304 3.17971 12.3729 3.17971C11.4096 3.17971 10.4462 3.17971 9.48781 3.17971C9.10639 3.17971 8.86679 3.41932 8.8619 3.80073C8.85701 3.97188 8.857 4.14792 8.857 4.33863Z" fill="#ACB1C4"/>
</svg>
