<svg width="24" height="24" viewBox="0 0 24 24" fill="none" xmlns="http://www.w3.org/2000/svg">
<path d="M11.7809 2C12.3091 2.08314 12.7052 2.38148 13.0672 2.75317C13.3508 3.04661 13.6589 3.3205 13.9475 3.60905C14.1382 3.79979 14.3583 3.86337 14.6224 3.81935C15.1164 3.7411 15.6103 3.66774 16.1092 3.60416C17.1949 3.47211 17.9823 4.05899 18.1731 5.14473C18.2611 5.62403 18.3442 6.10332 18.4176 6.5875C18.4616 6.8516 18.5888 7.03744 18.8333 7.15971C19.2833 7.38958 19.7332 7.62922 20.1783 7.86887C21.1075 8.37261 21.4156 9.32141 20.9608 10.28C20.7456 10.7299 20.5304 11.1848 20.3005 11.6298C20.1685 11.8841 20.1734 12.1189 20.3054 12.3732C20.5255 12.7987 20.7309 13.234 20.9412 13.6693C21.4303 14.6719 21.1173 15.6256 20.1391 16.1489C19.7088 16.3787 19.2833 16.6135 18.848 16.8336C18.5888 16.9607 18.4616 17.1563 18.4176 17.44C18.3393 17.9389 18.2562 18.4426 18.1535 18.9366C17.9383 19.993 17.1069 20.5554 16.0456 20.3891C15.5516 20.3109 15.0528 20.2473 14.5588 20.1739C14.329 20.1397 14.1382 20.2082 13.9719 20.3696C13.6002 20.7364 13.2285 21.0983 12.852 21.4553C12.089 22.184 11.0815 22.1791 10.3186 21.4553C9.95665 21.1081 9.58985 20.7657 9.23772 20.4087C9.0372 20.2033 8.81222 20.1348 8.53345 20.1837C8.03949 20.2668 7.54553 20.3402 7.04667 20.394C5.95115 20.5212 5.16864 19.9147 4.98768 18.8241C4.90943 18.3497 4.82139 17.8753 4.74314 17.4009C4.69913 17.1417 4.57197 16.9656 4.33721 16.8433C3.89216 16.6184 3.45199 16.3787 3.01183 16.144C2.05325 15.6207 1.74513 14.6621 2.21953 13.6839C2.42983 13.2487 2.63035 12.8134 2.85532 12.3879C2.99226 12.1238 2.99716 11.8793 2.86022 11.6103C2.63035 11.1701 2.42005 10.725 2.20975 10.28C1.75491 9.3263 2.06303 8.37261 2.99226 7.86887C3.43243 7.62922 3.87259 7.38958 4.31765 7.16949C4.58175 7.03744 4.7138 6.83692 4.75782 6.54837C4.83607 6.05441 4.91921 5.56045 5.01702 5.07137C5.22732 4.0052 6.06364 3.44276 7.1396 3.61394C7.62867 3.69219 8.11774 3.75577 8.60681 3.82913C8.83668 3.86337 9.02742 3.79979 9.1937 3.63839C9.49692 3.34006 9.80993 3.0564 10.1034 2.75317C10.4604 2.38148 10.8614 2.08314 11.3896 2C11.5168 2 11.6488 2 11.7809 2ZM16.3684 19.2594C16.7205 19.2642 16.9504 19.0784 17.0091 18.7605C17.0922 18.3203 17.19 17.8802 17.2389 17.4351C17.3319 16.6282 17.7182 16.0559 18.4665 15.7185C18.8627 15.5375 19.2392 15.3174 19.6207 15.112C20.0169 14.8968 20.1098 14.6083 19.9142 14.2024C19.6941 13.7475 19.474 13.2878 19.2441 12.8378C18.9605 12.2754 18.9654 11.7179 19.249 11.1554C19.4642 10.725 19.6745 10.2947 19.8848 9.85939C20.1245 9.37032 20.0413 9.10622 19.562 8.85679C19.1316 8.62693 18.7013 8.39706 18.2709 8.17209C17.7036 7.87865 17.3808 7.41403 17.283 6.78313C17.1998 6.27449 17.1118 5.77075 17.014 5.267C16.9406 4.87575 16.6765 4.6899 16.2852 4.7437C15.7913 4.81706 15.2924 4.88064 14.7985 4.95889C14.1382 5.06159 13.5807 4.88553 13.1112 4.40624C12.7688 4.05899 12.4118 3.72643 12.0597 3.38897C11.732 3.07596 11.4288 3.07107 11.106 3.38407C10.7343 3.7411 10.3675 4.09812 9.99578 4.45514C9.58496 4.85129 9.09588 5.04203 8.52367 4.96867C7.99058 4.9002 7.4526 4.82684 6.91951 4.7437C6.47935 4.68012 6.22503 4.85129 6.137 5.29146C6.05875 5.70717 5.96582 6.12288 5.92181 6.53859C5.83377 7.35534 5.43763 7.92756 4.68445 8.26991C4.28831 8.45086 3.91172 8.67095 3.53024 8.87636C3.14388 9.08177 3.05095 9.37521 3.24169 9.77136C3.46177 10.2262 3.68186 10.6859 3.91172 11.1359C4.20027 11.7032 4.19538 12.2705 3.91172 12.8378C3.68675 13.278 3.47645 13.7231 3.26125 14.1681C3.04606 14.6083 3.13899 14.8822 3.57426 15.112C4.00953 15.3419 4.44481 15.5815 4.88497 15.8065C5.45719 16.1048 5.78487 16.5695 5.88757 17.2053C5.96582 17.7041 6.05875 18.203 6.15167 18.7018C6.22992 19.1175 6.49402 19.2936 6.91462 19.23C7.40859 19.1567 7.90744 19.0882 8.4014 19.0148C9.05187 18.917 9.60452 19.1126 10.0691 19.5773C10.4164 19.9245 10.7685 20.2571 11.1206 20.5945C11.4385 20.8978 11.7467 20.9026 12.0597 20.5945C12.4118 20.2571 12.7688 19.9245 13.1112 19.5773C13.6051 19.0784 14.1871 18.9072 14.8718 19.0246C15.3756 19.1322 15.894 19.1909 16.3684 19.2594Z" fill="#ACB1C4"/>
<path d="M15.9918 8.20633C15.938 8.3237 15.894 8.44108 15.8353 8.55357C15.8011 8.61226 15.7424 8.66116 15.6886 8.71007C13.2237 11.1701 10.7587 13.6399 8.29381 16.1048C8.15687 16.2418 8.02482 16.3689 7.81452 16.3738C7.56998 16.3836 7.38413 16.2809 7.27165 16.0657C7.15916 15.8505 7.18361 15.6402 7.33523 15.4446C7.37435 15.3957 7.42326 15.3468 7.46728 15.3028C9.94198 12.8281 12.4167 10.3534 14.8914 7.87865C15.0332 7.73682 15.1799 7.61944 15.3951 7.61944C15.7081 7.62433 15.9625 7.87376 15.9918 8.20633Z" fill="#ACB1C4"/>
<path d="M9.27195 11.0332C8.09818 11.0283 7.15916 10.0795 7.16894 8.90081C7.17872 7.7466 8.1422 6.7978 9.29641 6.80758C10.4555 6.81736 11.3945 7.77594 11.3896 8.93504C11.3847 10.0941 10.4311 11.0381 9.27195 11.0332ZM9.28662 7.96668C8.75843 7.96179 8.33293 8.3775 8.31826 8.91059C8.30848 9.4339 8.75354 9.88384 9.28173 9.88384C9.80015 9.88384 10.2354 9.44857 10.2403 8.92526C10.2403 8.39706 9.81482 7.97157 9.28662 7.96668Z" fill="#ACB1C4"/>
<path d="M13.8888 12.965C15.0577 12.965 15.9967 13.8991 16.0016 15.068C16.0065 16.2369 15.0479 17.1955 13.8839 17.1906C12.7297 17.1857 11.776 16.232 11.7809 15.0729C11.7809 13.904 12.7248 12.965 13.8888 12.965ZM13.8937 16.0266C14.4219 16.0217 14.8474 15.5962 14.8474 15.0729C14.8474 14.5545 14.4121 14.1192 13.8888 14.1143C13.3606 14.1094 12.9155 14.5594 12.9253 15.0876C12.94 15.6158 13.3655 16.0315 13.8937 16.0266Z" fill="#ACB1C4"/>
</svg>
