<svg width="24" height="24" viewBox="0 0 24 24" fill="none" xmlns="http://www.w3.org/2000/svg">
<path d="M21.0317 12.5742C21.0317 17.6767 17.4491 21.5307 12.6723 21.965C8.17771 22.3775 3.93284 19.0989 3.15118 14.5392C2.5975 11.3365 3.57458 8.58986 5.91957 6.33172C6.52753 5.74547 7.29834 5.73461 7.78688 6.27744C8.27542 6.82026 8.19942 7.52593 7.5806 8.10132C4.80136 10.7394 4.68194 14.9626 7.36348 17.6007C9.26335 19.468 11.5649 20.0434 14.0945 19.1857C16.6349 18.3281 18.1331 16.4825 18.513 13.8227C18.8279 11.5754 18.0679 9.6755 16.4395 8.10132C15.8315 7.51507 15.8206 6.65741 16.4069 6.19058C16.9171 5.7889 17.5468 5.82147 18.0679 6.29915C20.0221 8.09046 20.9774 10.3269 21.0317 12.5742Z" fill="#ACB1C4"/>
<path d="M10.7941 6.42943C10.7941 5.39806 10.7941 4.3667 10.7941 3.3462C10.7941 2.55368 11.3044 2 12.01 2C12.7157 2 13.226 2.55368 13.226 3.33534C13.226 5.41978 13.226 7.50421 13.226 9.58865C13.226 10.3812 12.7157 10.924 12.01 10.924C11.3044 10.924 10.7941 10.3703 10.7941 9.58865C10.7941 8.53558 10.7941 7.4825 10.7941 6.42943Z" fill="#ACB1C4"/>
</svg>
