<svg width="24" height="24" viewBox="0 0 24 24" fill="none" xmlns="http://www.w3.org/2000/svg">
<path d="M23.0125 9.88949C22.761 8.85706 21.9205 8.17539 20.9146 8.20186C19.902 8.22834 19.0946 8.9431 18.8894 9.97553C18.6975 10.9484 18.499 11.9146 18.307 12.8875C18.1416 13.7015 17.5724 14.1979 16.7452 14.1979C15.2428 14.1979 13.7405 14.1979 12.2448 14.1979C10.5969 14.1979 8.94236 14.1979 7.29444 14.1979C6.48703 14.1979 5.91125 13.7015 5.74579 12.9007C5.54725 11.9146 5.3487 10.9285 5.15678 9.94244C4.90529 8.69822 3.71402 7.94376 2.51614 8.2879C1.51018 8.57248 0.927782 9.48578 1.0072 10.6175C1.06015 11.319 1.09985 12.0139 1.14618 12.7154C1.19913 13.4964 1.20574 14.2839 1.31825 15.0583C1.54989 16.6863 2.89337 17.8048 4.54129 17.8048C7.10251 17.8048 9.67035 17.8048 12.2316 17.8048H19.4652C19.5579 17.8048 19.6505 17.8048 19.7366 17.7982C21.2786 17.7386 22.6353 16.4547 22.7544 14.9325C22.8338 13.8736 22.8934 12.8081 22.9662 11.7426C22.9861 11.3984 23.0258 11.0543 23.0589 10.7168V9.97553C23.0456 9.94905 23.0192 9.92258 23.0125 9.88949Z" fill="#ACB1C4"/>
<path d="M4.15744 18.6056C4.97809 18.6056 5.76565 18.6056 6.59953 18.6056C6.4407 19.1946 6.32157 19.777 6.12303 20.3263C5.9311 20.8558 5.32223 21.1006 4.76631 20.9616C4.23686 20.8293 3.84638 20.3131 3.91257 19.7571C3.95889 19.3667 4.0714 18.9894 4.15744 18.6056Z" fill="#ACB1C4"/>
<path d="M17.4599 18.6056C18.2806 18.6056 19.0747 18.6056 19.902 18.6056C19.9814 18.9894 20.1072 19.3733 20.1469 19.7704C20.2064 20.3395 19.7961 20.8491 19.2534 20.9683C18.6777 21.094 18.0953 20.816 17.9099 20.2667C17.7246 19.7373 17.6055 19.1747 17.4599 18.6056Z" fill="#ACB1C4"/>
<path d="M20.5704 5.72668C20.2528 4.09861 18.9291 3.00662 17.2481 3.00662C15.5804 3.00662 13.906 3.00662 12.2382 3C10.3454 3 8.45262 3 6.55982 3C6.33481 3 6.10979 3.01324 5.89801 3.05956C3.93242 3.4368 2.76101 5.34944 3.31032 7.2687C3.33017 7.3415 3.4493 7.42754 3.52871 7.44078C4.70013 7.62608 5.64652 8.47983 5.90463 9.638C6.12303 10.6175 6.30834 11.6102 6.50026 12.5963C6.62601 13.225 6.83779 13.4037 7.47313 13.4037H12.258C13.7207 13.4037 15.1899 13.4037 16.6525 13.4037C17.1952 13.4037 17.4334 13.2118 17.5459 12.6757C17.7379 11.7492 17.9232 10.816 18.1019 9.88949C18.3467 8.63204 19.0747 7.83125 20.3057 7.4871C20.3719 7.46725 20.4646 7.40769 20.4778 7.34812C20.5969 6.81205 20.6763 6.26936 20.5704 5.72668ZM9.51152 12.3713C9.04163 12.3713 8.65778 11.9874 8.65778 11.5176C8.65778 11.0477 9.04163 10.6638 9.51152 10.6638C9.98141 10.6638 10.3653 11.0477 10.3653 11.5176C10.3653 11.9874 9.98141 12.3713 9.51152 12.3713ZM12.2316 12.3713C11.7617 12.3713 11.3778 11.9874 11.3778 11.5176C11.3778 11.0477 11.7617 10.6638 12.2316 10.6638C12.7015 10.6638 13.0853 11.0477 13.0853 11.5176C13.0853 11.9874 12.7015 12.3713 12.2316 12.3713ZM14.9516 12.3713C14.4817 12.3713 14.0979 11.9874 14.0979 11.5176C14.0979 11.0477 14.4817 10.6638 14.9516 10.6638C15.4215 10.6638 15.8054 11.0477 15.8054 11.5176C15.8054 11.9874 15.4215 12.3713 14.9516 12.3713Z" fill="#ACB1C4"/>
</svg>
