<svg width="24" height="24" viewBox="0 0 24 24" fill="none" xmlns="http://www.w3.org/2000/svg">
<path d="M19.4022 13.3676C19.3954 13.4218 19.3954 13.4557 19.3886 13.4895C19.3142 13.9838 19.4089 14.302 19.9777 14.5118C20.7833 14.803 21.2979 15.4733 21.6229 16.306C21.4265 16.3196 21.2573 16.3331 21.0812 16.3466C20.0521 16.4482 19.2464 16.9357 18.6439 17.7684C18.5491 17.9039 18.4543 17.9513 18.2918 17.9513C16.5789 17.9445 14.8659 17.9513 13.1462 17.9445C13.0515 17.9445 12.9228 17.9106 12.8687 17.8429C11.9479 16.6852 11.1625 16.3128 9.6459 16.3399C9.6459 16.2383 9.6459 16.1435 9.6459 16.042C9.6459 14.8165 9.6459 13.5911 9.63913 12.3656C9.63913 12.2302 9.59851 12.0812 9.53081 11.9594C7.89235 9.06838 6.24035 6.17062 4.58835 3.27962C4.50034 3.13067 4.41232 3.06974 4.23629 3.07651C3.40352 3.08328 2.56398 3.08328 1.73121 3.08328C1.65674 3.08328 1.57549 3.09005 1.50102 3.07651C1.20988 3.04265 1 2.81246 1 2.5281C1 2.24374 1.21666 2.00677 1.50779 2C2.6046 2 3.70819 2 4.80501 2C5.05552 2 5.1977 2.16249 5.3128 2.35884C6.2065 3.92959 7.1002 5.49357 8.00068 7.06432C8.79282 8.4455 9.58497 9.83345 10.3703 11.2214C10.4719 11.4042 10.587 11.4584 10.7833 11.4584C11.5146 11.4448 12.2525 11.4516 12.9905 11.4516C13.5322 11.4516 13.715 11.6344 13.715 12.1896C13.715 12.7448 13.715 13.3067 13.715 13.8619C13.715 13.9499 13.715 14.0447 13.715 14.153C14.3514 14.153 14.9675 14.153 15.5904 14.153C15.5904 13.889 15.5904 13.6385 15.5904 13.3947C15.5701 13.3812 15.5633 13.3676 15.5498 13.3676C14.9133 13.3202 14.7982 13.1916 14.7982 12.5552C14.7982 12.1219 14.7982 11.6953 14.7982 11.262C14.805 10.8626 15.0081 10.6459 15.4076 10.6459C16.8023 10.6391 18.197 10.6391 19.585 10.6459C19.998 10.6459 20.2011 10.8626 20.2011 11.2823C20.2079 11.736 20.2011 12.1963 20.2011 12.65C20.2011 13.1578 20.0251 13.3338 19.524 13.3609C19.4834 13.3609 19.4496 13.3609 19.4022 13.3676Z" fill="#ACB1C4"/>
<path d="M6.64658 19.8402C5.73934 19.8402 4.84563 19.847 3.95193 19.8334C3.62695 19.8267 3.4306 19.5965 3.4306 19.2647C3.4306 16.8544 3.42383 14.4509 3.4306 12.0406C3.4306 11.6209 3.7285 11.3839 4.1415 11.4854C5.5633 11.8511 6.98511 12.2234 8.40014 12.6026C8.46784 12.6229 8.55586 12.7312 8.55586 12.7989C8.56263 14.0379 8.56263 15.2837 8.55586 16.5227C8.55586 16.5904 8.50169 16.6852 8.44753 16.719C7.28301 17.4028 6.69397 18.4116 6.66689 19.759C6.67366 19.7793 6.66012 19.7928 6.64658 19.8402Z" fill="#ACB1C4"/>
<path d="M10.0521 22C8.78605 22 7.76371 20.9777 7.75694 19.7183C7.75017 18.4523 8.78605 17.4164 10.0589 17.4164C11.3318 17.4164 12.3609 18.4523 12.3541 19.7251C12.3473 20.9844 11.3182 22 10.0521 22ZM10.0589 19.2986C9.83548 19.2986 9.65945 19.4746 9.65945 19.698C9.65945 19.9215 9.82871 20.1043 10.0521 20.1043C10.2688 20.1043 10.4584 19.9215 10.4584 19.7048C10.4651 19.4949 10.2756 19.3053 10.0589 19.2986Z" fill="#ACB1C4"/>
<path d="M21.3995 22C20.1334 21.9932 19.111 20.9777 19.1043 19.7116C19.0975 18.4455 20.1334 17.4096 21.413 17.4164C22.6859 17.4164 23.7082 18.4523 23.7014 19.7251C23.6947 20.9844 22.6655 22 21.3995 22ZM21.8125 19.698C21.8057 19.4814 21.6161 19.2986 21.3995 19.2986C21.176 19.2986 21.0068 19.4814 21.0068 19.7116C21.0068 19.935 21.1896 20.111 21.413 20.111C21.6297 20.1043 21.8192 19.9147 21.8125 19.698Z" fill="#ACB1C4"/>
<path d="M18.0548 20.0975C16.5044 20.0975 14.981 20.0975 13.4171 20.0975C13.4171 19.759 13.4171 19.4137 13.4171 19.0548C14.9404 19.0548 16.4976 19.0548 18.0548 19.0548C18.0548 19.4001 18.0548 19.7387 18.0548 20.0975Z" fill="#ACB1C4"/>
</svg>
