<svg width="24" height="24" viewBox="0 0 24 24" fill="none" xmlns="http://www.w3.org/2000/svg">
<path d="M11.6128 4.78881C12.004 4.35645 12.3471 3.86232 12.7863 3.49859C14.6256 1.9819 16.7188 1.60444 18.9492 2.42112C21.1728 3.2378 22.511 4.89175 22.9091 7.23198C23.2591 9.27025 22.6963 11.0889 21.2482 12.5644C18.4002 15.4674 15.504 18.3292 12.6285 21.2048C12.4569 21.3763 12.2922 21.5479 12.1206 21.7126C11.7226 22.0969 11.2628 22.0969 10.8716 21.7057C9.801 20.642 8.73726 19.5783 7.67351 18.5077C5.74505 16.5792 3.82345 14.6576 1.89499 12.7291C0.618498 11.4526 -0.0266107 9.9085 0.0008407 8.08984C0.0488807 5.03587 2.38912 2.44171 5.42936 2.08484C7.41273 1.85151 9.12844 2.43485 10.5765 3.80742C10.8853 4.10252 11.1736 4.41821 11.4687 4.72704C11.5167 4.74763 11.5648 4.76822 11.6128 4.78881Z" fill="#ACB1C4"/>
</svg>
