<svg width="24" height="24" viewBox="0 0 24 24" fill="none" xmlns="http://www.w3.org/2000/svg">
<path d="M11.6137 4.78904C12.005 4.35664 12.3481 3.86247 12.7874 3.49871C14.6268 1.9819 16.7201 1.60441 18.9507 2.42116C21.1745 3.2379 22.5129 4.89199 22.9109 7.23241C23.261 9.27085 22.6982 11.0897 21.25 12.5653C18.4017 15.4685 15.5053 18.3306 12.6295 21.2063C12.4579 21.3779 12.2932 21.5495 12.1216 21.7142C11.7236 22.0986 11.2637 22.0986 10.8725 21.7074C9.8018 20.6435 8.73797 19.5797 7.67414 18.509C5.74552 16.5804 3.82377 14.6586 1.89514 12.73C0.618549 11.4534 -0.0266129 9.90915 0.000840769 8.09034C0.0488847 5.03612 2.38931 2.44175 5.42981 2.08485C7.41333 1.85149 9.12919 2.43488 10.5774 3.80757C10.8862 4.10269 11.1745 4.41841 11.4696 4.72726C11.5177 4.74786 11.5657 4.76845 11.6137 4.78904ZM11.5382 20.0258C11.6206 19.9229 11.6755 19.8405 11.751 19.765C13.0482 18.461 14.3523 17.1638 15.6563 15.8597C17.1388 14.3772 18.635 12.9085 20.0969 11.4054C21.1676 10.3004 21.5794 8.94827 21.2912 7.43831C20.9549 5.66069 19.8979 4.439 18.1614 3.89679C16.425 3.35458 14.867 3.77325 13.5492 5.02239C13.0688 5.47538 12.6158 5.95582 12.1491 6.41567C11.7373 6.82061 11.2843 6.82061 10.8656 6.4088C10.3646 5.91464 9.8773 5.40674 9.36941 4.9263C7.68787 3.32713 5.03173 3.25163 3.27469 4.74099C1.20194 6.49803 1.0784 9.56597 3.00702 11.5015C5.77984 14.288 8.55952 17.0608 11.3392 19.8405C11.3873 19.8954 11.4353 19.9366 11.5382 20.0258Z" fill="#ACB1C4"/>
</svg>
