<svg width="24" height="24" viewBox="0 0 24 24" fill="none" xmlns="http://www.w3.org/2000/svg">
<path d="M21.0974 10.3432C18.5149 7.77235 15.9401 5.18978 13.3654 2.61503C12.6884 1.93808 11.7728 1.80895 11.0176 2.28242C10.8806 2.36851 10.7554 2.47416 10.6419 2.59155C7.9537 5.27586 5.26547 7.96409 2.58116 10.6523C1.53639 11.701 1.96291 13.4032 3.35985 13.771C3.60245 13.8336 3.86071 13.8336 4.13853 13.8688C4.13853 13.9314 4.13853 14.0058 4.13853 14.0801C4.13853 15.9623 4.1581 17.8405 4.13071 19.7226C4.11505 20.9904 5.03461 21.8552 5.9659 21.9726L9.6089 22C9.95715 21.8709 10.0745 21.6165 10.0745 21.2526C10.0667 19.7774 10.0706 18.3022 10.0706 16.8231C10.0706 16.107 10.4619 15.7196 11.1819 15.7196C11.7337 15.7196 12.2854 15.7196 12.841 15.7196C13.5102 15.7236 13.9132 16.1227 13.9132 16.7879C13.9132 18.2787 13.921 19.7657 13.9093 21.2565C13.9054 21.6165 14.0306 21.8709 14.3749 22C15.5723 22 16.7697 22 17.9671 22C18.0923 21.9648 18.2175 21.9374 18.3388 21.8983C19.2114 21.6283 19.8336 20.8144 19.8414 19.8987C19.8492 17.9657 19.8453 16.0327 19.8453 14.1036C19.8453 14.0253 19.8453 13.9471 19.8453 13.8414C19.9509 13.8414 20.0449 13.8414 20.1388 13.8414C21.0583 13.8297 21.7744 13.231 21.9544 12.3271C21.9622 12.2958 21.9779 12.2684 21.9896 12.2371C21.9896 12.0806 21.9896 11.924 21.9896 11.7675C21.8879 11.1727 21.5122 10.7541 21.0974 10.3432Z" fill="#ACB1C4"/>
</svg>
