<svg width="24" height="24" viewBox="0 0 24 24" fill="none" xmlns="http://www.w3.org/2000/svg">
<path d="M21.7268 7.00023C21.4676 4.45594 19.7486 2.5733 17.2248 2.20496C15.9765 2.02079 14.6942 2.00032 13.4254 2.00032C11.2495 2.00032 9.06672 1.98668 6.89759 2.13675C4.18959 2.33456 2.2251 4.33316 2 7.03434V17C2.21146 19.5375 3.97814 21.4406 6.48832 21.7953C7.75023 21.9727 9.03943 22 10.3218 22C12.4841 22 14.6601 22.0068 16.8155 21.8567C18.8141 21.7135 20.3421 20.6903 21.222 18.8349C21.604 18.0232 21.7814 17.1501 21.795 16.2634L21.7268 7.00023ZM11.8429 17.1365C9.00533 17.1228 6.72024 14.8377 6.72024 12.0001C6.72024 9.1489 9.02579 6.85016 11.8702 6.86381C14.7078 6.87745 16.9861 9.16254 16.9929 12.0001C16.9997 14.8446 14.6873 17.1501 11.8429 17.1365ZM17.1566 7.85287C16.5018 7.83241 15.997 7.29354 16.0107 6.62507C16.0243 5.95659 16.5768 5.43819 17.2521 5.45865C17.9001 5.47911 18.4117 6.02481 18.3981 6.68646C18.3844 7.35493 17.8319 7.87334 17.1566 7.85287Z" fill="#ACB1C4"/>
<path d="M11.8497 15.3356C10.0148 15.3288 8.521 13.835 8.521 12.0001C8.521 10.1515 10.0285 8.65088 11.8838 8.66452C13.7187 8.67816 15.1989 10.1788 15.1921 12.0137C15.1853 13.8486 13.6914 15.3424 11.8497 15.3356Z" fill="#ACB1C4"/>
</svg>
