<svg width="24" height="24" viewBox="0 0 24 24" fill="none" xmlns="http://www.w3.org/2000/svg">
<path d="M21.7815 5.0978C21.1255 3.34845 19.8499 2.18222 17.9912 2.03644C17.6997 2 17.1166 2 16.825 2C15.841 2.07289 14.9663 2.51023 14.2374 3.20268C13.0348 4.36891 11.8321 5.60803 10.6294 6.8107C10.5201 6.92003 10.4472 7.06581 10.5201 7.21159C10.593 7.35737 10.7023 7.43026 10.8845 7.43026C11.577 7.43026 12.2694 7.53959 12.9254 7.79471C13.1805 7.90404 13.3992 7.83115 13.5814 7.64893C14.3468 6.84715 15.1486 6.08181 15.9139 5.31647C16.5699 4.66046 17.5539 4.51468 18.3557 4.95202C19.5219 5.60803 19.7042 7.17515 18.7566 8.15915L14.4561 12.3503C13.9094 12.8605 13.2534 12.9699 12.561 12.7876C12.1965 12.6783 11.905 12.4596 11.6134 12.241C11.0668 11.8036 10.2285 11.8401 9.79119 12.3867C9.31741 12.9334 9.35386 13.7352 9.86408 14.2454C11.6863 16.0312 14.6019 15.9583 16.3148 14.3183C17.809 12.8605 19.2668 11.4027 20.7246 9.94494C21.2348 9.39827 21.6357 8.77871 21.8544 8.08626C21.9637 7.75826 22.0002 7.39382 22.0731 7.06581C22.0731 6.8107 22.0731 6.55559 22.0731 6.33692C21.9637 5.86314 21.9273 5.46225 21.7815 5.0978Z" fill="#ACB1C4"/>
<path d="M9.64541 11.5485C10.1921 11.1112 10.8116 10.9654 11.5041 11.1476C11.8685 11.257 12.1601 11.4756 12.4517 11.7307C12.9983 12.1681 13.8001 12.0952 14.2739 11.585C14.7477 11.0383 14.7112 10.2729 14.201 9.76272C13.2899 8.88805 12.1965 8.41427 10.9574 8.41427C9.7183 8.45071 8.62496 8.81516 7.75029 9.68983C6.6205 10.7832 5.49072 11.9494 4.36093 13.0792C3.96004 13.4801 3.5227 13.881 3.15826 14.2819C2.02847 15.6303 1.70047 17.161 2.28359 18.8375C2.90315 20.5868 4.14226 21.6072 5.9645 21.9352C7.38584 22.1539 8.66141 21.8259 9.7183 20.8419C10.9574 19.6757 12.1601 18.4366 13.3628 17.2339C13.4721 17.1245 13.5814 16.9788 13.5086 16.7965C13.4357 16.6143 13.2534 16.5779 13.0712 16.5779C12.4152 16.5779 11.7592 16.4685 11.1396 16.2134C10.8481 16.1041 10.6294 16.1405 10.4108 16.3592C9.64541 17.161 8.88008 17.9263 8.07829 18.6917C7.16717 19.6028 5.70939 19.4935 4.98049 18.4366C4.43382 17.6712 4.50671 16.5779 5.19916 15.8854L9.64541 11.5485Z" fill="#ACB1C4"/>
</svg>
