<svg width="24" height="24" viewBox="0 0 24 24" fill="none" xmlns="http://www.w3.org/2000/svg">
<path d="M21 21V14.3333C21 11.1111 20.3333 8.55556 16.5556 8.55556C15.1111 8.55556 13.7778 9.22222 13 10.5556V9H9.33333V21H13.1111V15C13.1111 13.4444 13.4444 11.8889 15.3333 11.8889C17.2222 11.8889 17.3333 13.6667 17.3333 15.1111V21H21Z" fill="#ACB1C4"/>
<path d="M3.33333 9H7.11111V21H3.33333V9Z" fill="#ACB1C4"/>
<path d="M5.11111 3C4 3 3 4 3 5.22222C3 6.44444 4 7.44444 5.22222 7.44444C6.44444 7.44444 7.44444 6.44444 7.44444 5.22222C7.33333 4 6.33333 3 5.11111 3Z" fill="#ACB1C4"/>
</svg>
