<svg width="24" height="24" viewBox="0 0 24 24" fill="none" xmlns="http://www.w3.org/2000/svg">
<path d="M18.2654 5.29652C17.2969 3.82453 15.9672 2.82315 14.2818 2.32519C13.8002 2.18291 13.2968 2.068 12.7934 2.01875C12.2188 1.95856 11.4472 2.06253 11.4472 2.06253C10.5006 2.16103 9.60315 2.42368 8.78234 2.88881C6.78504 4.01606 5.54288 5.70145 5.12701 7.96688C4.86435 9.40604 4.99568 10.8178 5.64685 12.1311C6.0682 12.9793 6.59899 13.7782 7.10789 14.5771C8.59082 16.9082 10.0847 19.2284 11.584 21.5485C11.6935 21.7127 11.8631 21.8769 12.0437 21.9535C12.3501 22.0848 12.6237 21.9316 12.8536 21.5759C14.6922 18.714 16.5363 15.8576 18.3639 12.9902C19.0151 11.9724 19.3598 10.8452 19.42 9.64134C19.5076 8.07085 19.13 6.61528 18.2654 5.29652ZM12.2133 12.4923C10.4185 12.4813 8.9465 10.9984 8.9465 9.21999C8.95198 7.42515 10.4513 5.93675 12.2352 5.94769C14.0301 5.96411 15.502 7.44157 15.4966 9.22546C15.4966 11.0148 13.9972 12.5087 12.2133 12.4923Z" fill="#ACB1C4"/>
</svg>
