<svg width="24" height="24" viewBox="0 0 24 24" fill="none" xmlns="http://www.w3.org/2000/svg">
<path d="M13.4349 7.25386C13.0817 7.09934 12.8609 7.05519 12.4857 7.01104C12.287 6.98896 11.6468 6.98896 11.6468 6.98896C11.0066 7.05519 10.4327 7.25386 9.90287 7.60706C8.71082 8.40177 8.09272 9.52759 8.11479 10.9625C8.13687 12.2428 8.68875 13.3024 9.74835 14.0309C11.0729 14.936 12.4636 15.0243 13.8985 14.2737C15.3554 13.5011 16.128 11.8675 15.8631 10.2561C15.5982 8.82119 14.7815 7.80574 13.4349 7.25386Z" fill="#ACB1C4"/>
<path d="M12 2C6.48124 2 2 6.48124 2 12C2 17.4967 6.45916 21.9559 11.9338 22C11.9559 22 11.9559 22 11.9779 22C11.9779 22 11.9779 22 12 22C12 22 12 22 12.0221 22C17.5408 22 22.0221 17.5188 22.0221 12C22.0221 6.48124 17.5188 2 12 2ZM18.6446 17.7174C18.6004 17.6512 18.5563 17.5629 18.4901 17.4746C17.8057 16.3267 16.8124 15.5541 15.532 15.2009C15.0684 15.0684 14.6269 15.0464 14.1854 15.3775C13.6115 15.7969 12.9272 15.9735 12.1987 15.9956C11.2494 16.0397 10.4106 15.7969 9.63797 15.245C9.43929 15.1126 9.24062 15.0464 8.99779 15.0905C8.88742 15.1126 8.77704 15.1347 8.66667 15.1567C7.16556 15.532 6.08389 16.3929 5.39956 17.7616C4.05298 16.2163 3.25828 14.2075 3.25828 12.0221C3.25828 7.18764 7.18764 3.25828 12.0221 3.25828C16.8565 3.25828 20.7638 7.16556 20.7638 12C20.7638 14.1854 19.9691 16.1722 18.6446 17.7174Z" fill="#ACB1C4"/>
</svg>
