<svg width="24" height="24" viewBox="0 0 24 24" fill="none" xmlns="http://www.w3.org/2000/svg">
<path d="M22.0764 11.2311C21.8939 11.1837 21.7113 11.1837 21.5491 11.1837C18.9192 11.1837 16.2893 11.1837 13.6595 11.1837H9.9479C8.23071 11.1837 6.51351 11.1837 4.79632 11.1837C4.56646 11.1837 4.3366 11.1837 4.10674 11.1837C3.49153 11.1837 2.86279 11.1837 2.23405 11.1905C1.61208 11.1972 1.09151 11.6716 1.01715 12.2883C0.94278 12.9525 1.32137 13.5285 1.93659 13.6912C2.11912 13.7386 2.31518 13.7386 2.49096 13.7386C6.79746 13.7386 11.104 13.7386 15.4172 13.7386C16.9519 13.7386 18.4865 13.7386 20.0212 13.7386H21.5559C21.6302 13.7386 21.7046 13.7386 21.779 13.7319C22.4009 13.698 22.9215 13.2236 22.9891 12.6272C23.0702 11.9766 22.6916 11.4005 22.0764 11.2311Z" fill="#ACB1C4"/>
<path d="M2.34066 6.57528C4.00377 6.57528 5.67363 6.57528 7.33674 6.57528H9.29732C11.339 6.57528 13.3807 6.57528 15.4157 6.57528C15.5103 6.57528 15.5982 6.57528 15.6928 6.57528C15.7875 6.57528 15.8754 6.57528 15.97 6.57528C16.1052 6.57528 16.2472 6.57528 16.3824 6.5685C17.0044 6.5414 17.5047 6.08056 17.5926 5.43674C17.6737 4.83358 17.3019 4.25075 16.7272 4.07455C16.565 4.02711 16.3824 4 16.1458 4C11.9948 4 7.78294 4 3.7063 4H2.41503C2.34066 4 2.26629 4 2.18517 4.00678C1.64432 4.07455 1.26572 4.36596 1.08319 4.84713C0.934455 5.24698 0.988539 5.66716 1.2184 6.00601C1.46854 6.36519 1.88094 6.57528 2.34066 6.57528Z" fill="#ACB1C4"/>
<path d="M11.9964 18.347C10.8403 18.347 9.66395 18.347 8.52816 18.347C8.06168 18.347 7.60196 18.347 7.13548 18.347H5.97942C4.77603 18.347 3.5794 18.347 2.37602 18.347C1.57827 18.347 1.01714 18.8689 1.00361 19.6143C0.996854 19.9667 1.1253 20.2988 1.35517 20.5292C1.60531 20.78 1.96362 20.9223 2.3625 20.9223C3.68081 20.9223 5.00589 20.9223 6.35125 20.9223C8.14281 20.9223 9.98169 20.9223 11.9017 20.9223C12.0842 20.9223 12.26 20.8952 12.4087 20.8478C13.0037 20.6512 13.3485 20.0684 13.2538 19.4246C13.1795 18.8079 12.6318 18.3538 11.9964 18.347Z" fill="#ACB1C4"/>
</svg>
