<svg width="24" height="24" viewBox="0 0 24 24" fill="none" xmlns="http://www.w3.org/2000/svg">
<path d="M21.6681 15.5241C15.5312 15.5241 9.44032 15.5241 3.30333 15.5241C3.21104 15.0166 3.1649 14.5552 3.07261 14.0476C2.8419 12.6633 2.65733 11.279 2.42662 9.89474C2.28819 9.06417 2.14976 8.18745 2.01133 7.31074C1.96519 6.98774 2.05747 6.71089 2.33433 6.57246C2.65733 6.38789 2.93419 6.43403 3.1649 6.66474C4.4569 7.63374 5.70275 8.60274 6.99475 9.52559C7.13318 9.66402 7.36389 9.75631 7.54846 9.75631C7.96375 9.80245 8.2406 9.61788 8.47132 9.29488C9.34803 7.95674 10.2247 6.66474 11.1015 5.3266C11.3322 5.0036 11.5167 4.72675 11.7013 4.44989C12.1166 3.85004 12.8549 3.85004 13.2702 4.44989C14.3314 6.06489 15.3927 7.63374 16.454 9.24874C16.8693 9.84859 17.423 9.94088 17.9767 9.52559C19.2226 8.60274 20.5146 7.63374 21.7604 6.71089C22.2219 6.34174 22.8217 6.52631 22.914 7.08003C22.9601 7.2646 22.914 7.44917 22.8679 7.67988C22.591 9.61788 22.268 11.5559 21.9911 13.4939C21.8989 14.0937 21.8066 14.832 21.6681 15.5241Z" fill="#ACB1C4"/>
<path d="M3.30333 16.9084C9.44031 16.9084 15.5312 16.9084 21.6681 16.9084C21.6681 16.9546 21.6681 17.0007 21.6681 17.093C21.6681 17.739 21.6681 18.3389 21.6681 18.9849C21.6681 19.5847 21.2529 20 20.653 20C15.2082 19.9539 9.76331 19.9539 4.31847 19.9539C3.71861 19.9539 3.30333 19.5386 3.30333 18.9387C3.30333 18.2927 3.30333 17.6006 3.30333 16.9084Z" fill="#ACB1C4"/>
</svg>
