<svg width="24" height="24" viewBox="0 0 24 24" fill="none" xmlns="http://www.w3.org/2000/svg">
<path d="M3.16115 16.2631C3.20571 15.8566 3.24469 15.45 3.28924 15.0435C3.3505 14.52 3.20014 14.0633 2.8827 13.6456C2.65437 13.3505 2.42047 13.0553 2.22555 12.7323C1.92482 12.2422 1.92482 11.7522 2.22555 11.2621C2.40933 10.9669 2.61538 10.6829 2.83258 10.4212C3.26697 9.89766 3.35607 9.30733 3.2614 8.66132C3.20571 8.27149 3.13888 7.88165 3.17786 7.48068C3.21684 7.09084 3.40619 6.80682 3.72363 6.58962C3.92969 6.4504 4.16359 6.35015 4.39192 6.24991C4.58684 6.1608 4.78733 6.07727 4.98224 5.99373C5.45562 5.79324 5.78419 5.4591 5.98468 4.9913C6.12391 4.66829 6.25756 4.33971 6.4135 4.02228C6.75878 3.33171 7.19317 3.10895 7.95613 3.19248C8.31255 3.23147 8.67454 3.26488 9.03097 3.2983C9.4932 3.34285 9.90531 3.20919 10.2784 2.9363C10.5402 2.74139 10.7964 2.5409 11.0693 2.35712C11.7542 1.87818 12.2332 1.88375 12.9238 2.35712C13.1521 2.51305 13.3804 2.67456 13.592 2.85277C14.1044 3.28716 14.6947 3.36512 15.3352 3.27045C15.7139 3.22033 16.087 3.1535 16.4713 3.18691C16.9279 3.22033 17.2454 3.45423 17.4681 3.8385C17.6241 4.11138 17.7577 4.3954 17.858 4.685C18.1086 5.40341 18.5819 5.87678 19.3004 6.12739C19.5621 6.21649 19.8127 6.34458 20.0577 6.4671C20.6481 6.76226 20.8653 7.25791 20.7984 7.89279C20.765 8.24921 20.726 8.6112 20.6871 8.96762C20.6314 9.46884 20.765 9.91436 21.0713 10.3098C21.2662 10.5604 21.4556 10.8166 21.6394 11.0839C22.1016 11.7522 22.096 12.2311 21.6394 12.905C21.4834 13.1333 21.3219 13.3616 21.1437 13.5733C20.7038 14.0912 20.6147 14.6871 20.7149 15.3331C20.7539 15.606 20.7873 15.8844 20.804 16.1629C20.8486 16.7755 20.6202 17.2488 20.0522 17.5217C19.7236 17.6832 19.3895 17.8336 19.0497 17.9728C18.5318 18.1845 18.1754 18.5464 17.9638 19.0588C17.8301 19.3874 17.6909 19.7104 17.5294 20.0278C17.2064 20.6627 16.772 20.8855 16.0647 20.8075C15.6972 20.7685 15.3352 20.7295 14.9676 20.6961C14.4887 20.646 14.0654 20.7796 13.6811 21.0748C13.4194 21.2753 13.1632 21.4702 12.8903 21.654C12.2332 22.1107 11.7542 22.1162 11.086 21.6651C10.8521 21.5036 10.6182 21.3421 10.401 21.1583C9.88304 20.7184 9.28714 20.6348 8.64113 20.7295C8.26243 20.7852 7.8893 20.8465 7.50504 20.8131C7.05394 20.7796 6.74207 20.5513 6.51374 20.1782C6.31325 19.844 6.17403 19.482 6.02923 19.1201C5.8009 18.5576 5.4222 18.1733 4.85972 17.9506C4.52558 17.8169 4.19143 17.6777 3.874 17.505C3.38949 17.2321 3.14445 16.8256 3.16115 16.2631ZM16.7497 9.79185C16.7497 9.54681 16.6829 9.34075 16.5437 9.1514C16.1315 8.58892 15.363 8.54437 14.8395 9.0623C13.6366 10.2596 12.4392 11.457 11.2475 12.6599C11.1194 12.788 11.0525 12.8103 10.9133 12.6655C10.323 12.0585 9.72153 11.4626 9.12007 10.8667C8.66341 10.4212 7.98955 10.4212 7.54959 10.8555C7.12634 11.2788 7.12634 11.9638 7.5663 12.4093C8.47963 13.3338 9.39853 14.2527 10.323 15.1604C10.763 15.5948 11.3978 15.6004 11.8378 15.166C13.3804 13.6345 14.9119 12.0974 16.449 10.5604C16.6495 10.3488 16.7553 10.0926 16.7497 9.79185Z" fill="#ACB1C4"/>
</svg>
