<svg width="24" height="24" viewBox="0 0 24 24" fill="none" xmlns="http://www.w3.org/2000/svg">
<path d="M5.77793 9.06786C6.06307 9.07546 6.27979 9.19713 6.45848 9.41004C6.81586 9.83966 7.2759 10.064 7.83479 10.064C8.37087 10.064 8.8195 9.85487 9.17689 9.45566C9.54568 9.04505 9.82322 8.97661 10.3365 9.17812C11.0056 9.44045 11.6101 9.80164 12.1652 10.2579C12.477 10.5164 12.572 10.8548 12.439 11.2388C12.0626 12.3452 12.6823 13.4097 13.8305 13.6302C14.2487 13.7101 14.4806 13.9496 14.5605 14.3754C14.7049 15.151 14.6935 15.9228 14.5453 16.6946C14.473 17.0596 14.1955 17.3219 13.8191 17.379C12.6329 17.5653 11.9789 18.6868 12.3972 19.8122C12.5416 20.1962 12.4504 20.5498 12.1386 20.8083C11.6025 21.2532 11.0094 21.6068 10.3631 21.8691C9.98671 22.0212 9.60651 21.9261 9.35938 21.6029C8.618 20.6296 7.17705 20.6487 6.46988 21.641C6.22656 21.9869 5.84636 22.082 5.44716 21.9299C4.74379 21.6638 4.10506 21.2912 3.52336 20.8159C3.2078 20.5574 3.12415 20.1886 3.29524 19.778C3.69825 18.8085 3.2192 17.7287 2.23829 17.3942C2.09762 17.3447 1.94554 17.3219 1.79346 17.2991C1.41707 17.2345 1.14333 16.9569 1.0825 16.5844C0.960833 15.824 0.976041 15.0636 1.11291 14.307C1.18895 13.8926 1.46269 13.6302 1.88851 13.5732C3.08613 13.4097 3.75908 12.2957 3.35227 11.1551C3.2116 10.7559 3.31045 10.4024 3.64122 10.14C4.19251 9.70659 4.80082 9.36822 5.45856 9.12489C5.51559 9.10208 5.57642 9.08687 5.63725 9.07546C5.68668 9.07166 5.7361 9.07166 5.77793 9.06786ZM10.1122 15.5502C10.1236 14.307 9.10845 13.269 7.86901 13.2614C6.60676 13.2538 5.57262 14.2537 5.55741 15.497C5.5422 16.7668 6.54973 17.8086 7.80057 17.8162C9.07804 17.82 10.1046 16.8163 10.1122 15.5502Z" fill="#ACB1C4"/>
<path d="M16.1915 2C16.412 2.0038 16.5793 2.10265 16.7162 2.26614C16.9937 2.59691 17.3473 2.7718 17.7807 2.7718C18.1952 2.7718 18.5411 2.60831 18.8187 2.30036C19.1038 1.98099 19.3167 1.93156 19.7159 2.08745C20.233 2.28895 20.7007 2.5703 21.1303 2.92388C21.3698 3.12158 21.442 3.38772 21.3432 3.68427C21.0504 4.53972 21.5295 5.36474 22.4191 5.53203C22.7423 5.59286 22.921 5.77916 22.9818 6.10613C23.0959 6.70304 23.0845 7.29994 22.9704 7.89685C22.9172 8.1782 22.7005 8.3797 22.4115 8.42533C21.4953 8.5698 20.9896 9.43665 21.3128 10.3073C21.423 10.6039 21.3546 10.8776 21.1113 11.0791C20.6969 11.4213 20.2368 11.695 19.7388 11.9003C19.4498 12.0182 19.1533 11.946 18.9632 11.695C18.3929 10.9422 17.2751 10.9574 16.7276 11.7254C16.5375 11.9916 16.2447 12.0676 15.9368 11.9498C15.3931 11.7444 14.8989 11.4555 14.4502 11.0867C14.2069 10.8852 14.1423 10.6001 14.2753 10.2845C14.5871 9.5355 14.2183 8.69907 13.4579 8.44434C13.3476 8.40632 13.2298 8.38731 13.1157 8.3683C12.8268 8.31887 12.6139 8.10596 12.5682 7.81701C12.4732 7.22771 12.4846 6.6422 12.5949 6.0567C12.6557 5.73734 12.8648 5.53203 13.1918 5.48641C14.1156 5.35714 14.6365 4.49789 14.321 3.61584C14.2107 3.30788 14.2867 3.03414 14.5453 2.83263C14.9711 2.49806 15.4387 2.23572 15.9482 2.04943C15.9938 2.03422 16.0394 2.01901 16.0851 2.01141C16.1231 2 16.1611 2.0038 16.1915 2ZM19.5449 7.00719C19.5525 6.04529 18.7693 5.24308 17.8112 5.23928C16.8341 5.23167 16.0356 6.00347 16.0242 6.96537C16.0128 7.94628 16.7922 8.7523 17.7579 8.7561C18.7426 8.7637 19.5373 7.9881 19.5449 7.00719Z" fill="#ACB1C4"/>
</svg>
