<svg width="24" height="24" viewBox="0 0 24 24" fill="none" xmlns="http://www.w3.org/2000/svg">
<g clip-path="url(#clip0_283_225)">
<path d="M16.6073 2C16.8703 2 17.1271 2 17.39 2C17.4267 2.01223 17.4633 2.03057 17.5 2.03669C19.316 2.2996 20.6856 4.05442 20.2576 6.02323C19.9763 7.31947 19.1631 8.18771 17.8852 8.54234C16.6012 8.89697 15.4823 8.54234 14.5651 7.58239C14.4612 7.47233 14.3878 7.4601 14.2533 7.52125C12.9693 8.12045 11.6853 8.71354 10.4013 9.30052C10.2607 9.36778 10.2362 9.43504 10.2545 9.58178C10.2973 9.8875 10.3463 10.2054 10.3218 10.5112C10.2912 10.9269 10.1995 11.3366 10.1261 11.7768C10.1445 11.7891 10.1995 11.8257 10.2545 11.8624C11.1472 12.4127 12.0338 12.9569 12.9265 13.5072C13.2444 13.7028 13.2383 13.6967 13.5013 13.446C14.9504 12.0825 16.6501 11.6484 18.5395 12.2537C20.3187 12.8224 21.4193 14.088 21.8779 15.904C21.9268 16.0997 21.9574 16.2953 22.0002 16.491C22.0002 16.8273 22.0002 17.1697 22.0002 17.506C21.9635 17.6833 21.9329 17.8606 21.8962 18.0379C21.6578 19.1263 21.1258 20.0495 20.2759 20.771C19.0225 21.841 17.5795 22.2079 15.9653 21.8899C14.8709 21.6698 13.9537 21.1257 13.2261 20.2758C12.2295 19.1079 11.8382 17.7567 12.0644 16.2342C12.1194 15.8612 12.2417 15.4943 12.3334 15.1091C11.3001 14.4733 10.2545 13.8312 9.20287 13.1831C8.32852 14.0575 7.2952 14.5283 6.05399 14.4977C4.81889 14.461 3.79168 13.9596 2.98459 13.0242C1.57829 11.3977 1.69446 8.87252 3.23528 7.3745C4.03626 6.59187 5.00844 6.17609 6.12736 6.16998C7.53366 6.16386 8.65258 6.76918 9.5147 7.86365C10.8904 7.22776 12.2539 6.6041 13.6113 5.96821C13.6602 5.94375 13.703 5.85203 13.6969 5.797C13.489 4.41516 14.2289 2.96607 15.4884 2.36686C15.843 2.20177 16.2344 2.12229 16.6073 2Z" fill="#ACB1C4"/>
</g>
<defs>
<clipPath id="clip0_283_225">
<rect width="20" height="20" fill="white" transform="translate(2 2)"/>
</clipPath>
</defs>
</svg>
