<svg width="24" height="24" viewBox="0 0 24 24" fill="none" xmlns="http://www.w3.org/2000/svg">
<path d="M21.434 16.6803L18.6422 13.8885C17.6454 12.8917 15.9516 13.2888 15.5506 14.5855C15.2508 15.481 14.254 15.9794 13.3584 15.7808C11.3648 15.2824 8.67429 12.6892 8.17589 10.5983C7.87608 9.70273 8.47571 8.70594 9.37126 8.40613C10.6679 8.00897 11.065 6.31131 10.0682 5.31452L7.27645 2.52273C6.47823 1.82576 5.28287 1.82576 4.58589 2.52273L2.69355 4.41897C0.801202 6.41255 2.89602 11.6963 7.58016 16.3805C12.2643 21.0646 17.5481 23.2567 19.5416 21.2632L21.434 19.3708C22.131 18.5726 22.131 17.3772 21.434 16.6803Z" fill="#ACB1C4"/>
</svg>
