<svg width="24" height="24" viewBox="0 0 24 24" fill="none" xmlns="http://www.w3.org/2000/svg">
<path d="M21.9043 5.15085C21.4572 5.37726 20.8982 5.49064 20.451 5.60384C21.01 5.0378 21.4572 4.35861 21.6807 3.67936C21.6807 3.56615 21.6807 3.45289 21.5689 3.33968C21.4571 3.33968 21.4572 3.33968 21.3454 3.33968C20.6747 3.79251 19.8922 4.13219 19.1096 4.2454H18.9978C18.886 4.2454 18.6625 4.24529 18.5507 4.13208C17.6564 3.33962 16.6503 3 15.5324 3C15.0853 3 14.5263 3.11315 14.0792 3.22636C12.6259 3.67919 11.3963 4.92465 11.0609 6.50957C10.9491 7.07561 10.8373 7.64165 10.9491 8.20769V8.32073L10.8373 8.43405C7.59547 8.09443 4.5772 6.50951 2.45323 3.90572C2.34144 3.79251 2.22967 3.79251 2.11788 3.90572C2.11788 3.90572 2.11788 3.90556 2.11788 4.01876C1 5.8301 1.33538 8.20747 2.90041 9.67918C2.56504 9.56597 2.22965 9.45287 1.89429 9.22645C1.7825 9.11325 1.67073 9.22656 1.55894 9.33977V9.45281C1.55894 11.2641 2.56499 12.9623 4.2418 13.7548H4.13004C3.90647 13.7548 3.57109 13.7547 3.34752 13.6415C3.23573 13.6415 3.12395 13.7549 3.01217 13.8681V13.9811C3.57111 15.6793 4.91255 16.9246 6.70115 17.151C5.24791 18.1699 3.57111 18.6228 1.89429 18.6228H1.33535C1.22356 18.6228 1 18.7359 1 18.8492C1 18.9624 1.00001 19.1887 1.22359 19.3019C3.12398 20.434 5.35968 21 7.59544 21C9.49583 21 11.3963 20.6604 13.0731 19.8679C14.6381 19.1887 15.9795 18.1698 17.0974 16.8114C18.1035 15.5661 18.9978 14.2076 19.5567 12.6227C20.1157 11.151 20.3393 9.67929 20.3393 8.09437V7.98105C20.3393 7.75464 20.451 7.52822 20.6746 7.41501C21.3454 6.84897 22.0161 6.16994 22.4633 5.37748C22.5751 5.26428 22.4632 5.15101 22.3514 5.0378C22.1279 5.0378 22.0161 5.03764 21.9043 5.15085Z" fill="#ACB1C4"/>
</svg>
