<svg width="24" height="24" viewBox="0 0 24 24" fill="none" xmlns="http://www.w3.org/2000/svg">
<path d="M15.1191 3.55917C11.7877 2.3132 7.96143 3.19245 5.50485 5.76832C4.06448 7.27496 3.10129 9.05112 3.0085 11.1277C2.98641 11.6668 3.0085 12.7448 3.06152 13.2794C3.18965 14.6447 3.72427 15.8907 4.49747 17.0218C4.6477 17.2382 4.66979 17.415 4.58142 17.6624L3.56963 20.6669C3.96728 20.5387 4.34283 20.4239 4.72281 20.3001C5.43857 20.0704 6.15434 19.8451 6.86569 19.6109C6.9894 19.5711 7.08218 19.5888 7.19264 19.6551C8.28838 20.3532 9.47249 20.8613 10.7671 20.9673C11.3989 21.0203 12.6713 21.0026 13.3032 20.9585C16.935 20.6934 19.9085 17.7243 20.7657 14.1896C21.8438 9.70945 19.4402 5.17627 15.1191 3.55917ZM15.6891 16.9643C15.5521 17.0129 15.4063 17.035 15.2605 17.0615C15.1633 17.0792 15.0617 17.0748 15.013 17.0792C14.5491 17.0792 14.1471 16.982 13.7538 16.8627C12.5874 16.5048 11.474 16.0321 10.502 15.2721C9.60062 14.5696 8.82742 13.7434 8.15142 12.8288C7.75377 12.2897 7.36496 11.7463 7.09986 11.1277C6.73314 10.275 6.6271 9.41342 6.95405 8.52534C7.11311 8.09677 7.37379 7.73889 7.70958 7.43402C8.04096 7.138 8.45186 7.12474 8.8716 7.13358C9.14995 7.14241 9.33552 7.24845 9.44156 7.51355C9.73317 8.2249 10.0336 8.93183 10.3296 9.63876C10.4357 9.89502 10.3075 10.0983 10.1573 10.2838C10.0027 10.4782 9.83479 10.655 9.67131 10.8405C9.41505 11.1321 9.40622 11.2249 9.60946 11.5563C10.4357 12.8906 11.5314 13.9157 12.9983 14.5166C13.4225 14.6889 13.6124 14.6447 13.8996 14.2824C14.0719 14.0615 14.2398 13.8317 14.4033 13.6064C14.6419 13.2794 14.8407 13.2176 15.203 13.3766C15.879 13.6727 16.5374 14.0129 17.2001 14.3354C17.368 14.415 17.4387 14.5387 17.4343 14.7287C17.3989 15.9128 16.9571 16.5225 15.6891 16.9643Z" fill="#ACB1C4"/>
<path d="M15.013 17.0792C14.5491 17.0792 14.1471 16.982 13.7538 16.8627C12.5874 16.5048 11.474 16.0321 10.502 15.2721C9.60062 14.5696 8.82742 13.7434 8.15142 12.8288C7.75377 12.2897 7.36496 11.7463 7.09986 11.1277C6.73314 10.275 6.6271 9.41342 6.95405 8.52534C7.11311 8.09677 7.37379 7.73889 7.70958 7.43402C8.04096 7.138 8.45186 7.12474 8.8716 7.13358C9.14995 7.14241 9.33552 7.24845 9.44156 7.51355C9.73317 8.2249 10.0336 8.93183 10.3296 9.63876C10.4357 9.89502 10.3075 10.0983 10.1573 10.2838C10.0027 10.4782 9.83479 10.655 9.67131 10.8405C9.41505 11.1321 9.40622 11.2249 9.60946 11.5563C10.4357 12.8906 11.5314 13.9157 12.9983 14.5166C13.4225 14.6889 13.6124 14.6447 13.8996 14.2824C14.0719 14.0615 14.2398 13.8317 14.4033 13.6064C14.6419 13.2794 14.8407 13.2176 15.203 13.3766C15.879 13.6727 16.5374 14.0129 17.2001 14.3354C17.368 14.415 17.4387 14.5387 17.4343 14.7287C17.3989 15.9128 16.9571 16.5181 15.6891 16.9643C15.5521 17.0129 15.4063 17.035 15.2605 17.0615C15.1633 17.0792 15.0617 17.0748 15.013 17.0792Z" fill="white"/>
</svg>
