<svg width="24" height="24" viewBox="0 0 24 24" fill="none" xmlns="http://www.w3.org/2000/svg">
<path d="M2 19.411C2 14.995 2 10.5789 2 6.16291C2.02506 6.22306 2.06015 6.2782 2.0802 6.33835C2.7619 8.37845 3.4386 10.4185 4.1203 12.4586C4.41604 13.3459 5.04762 13.802 5.97995 13.802C6.99248 13.802 8.01003 13.802 9.02256 13.802C9.09273 13.802 9.16291 13.802 9.24311 13.802C9.24311 14.0075 9.2381 14.188 9.24311 14.3684C9.24812 14.7494 9.49373 15 9.86967 15C11.4486 15.005 13.0326 15.005 14.6115 15C14.9975 15 15.2381 14.7494 15.2481 14.3534C15.2531 14.1729 15.2481 13.9975 15.2481 13.797C15.3383 13.797 15.4085 13.797 15.4837 13.797C16.4912 13.797 17.4987 13.797 18.5063 13.797C19.4486 13.797 20.0752 13.3409 20.3759 12.4386C21.0326 10.4737 21.6842 8.50877 22.3409 6.54386C22.381 6.42857 22.4211 6.31328 22.4612 6.19799C22.4912 6.23308 22.4912 6.25815 22.4912 6.28321C22.4912 10.5789 22.4962 14.8747 22.4812 19.1704C22.4812 19.4411 22.411 19.7318 22.2957 19.9774C21.9549 20.6942 21.3434 21 20.5614 21C15.0175 21 9.47368 21 3.93484 21C3.88972 21 3.8396 21 3.79449 21C3.20301 20.9749 2.69173 20.7544 2.3609 20.2531C2.19549 20.0125 2.11529 19.6967 2 19.411Z" fill="#ACB1C4"/>
<path d="M15.2481 12.609C15.2481 12.3985 15.2531 12.213 15.2481 12.0276C15.2381 11.6617 14.9925 11.411 14.6266 11.411C13.0376 11.406 11.4536 11.406 9.86466 11.411C9.49875 11.411 9.25815 11.6667 9.24812 12.0326C9.24311 12.218 9.24812 12.4035 9.24812 12.599C9.17795 12.604 9.12782 12.609 9.07769 12.609C8.03509 12.609 6.99749 12.609 5.95489 12.609C5.58897 12.609 5.39348 12.4737 5.2782 12.1328C4.54135 9.92732 3.80952 7.72181 3.07268 5.5213C3.06266 5.49123 3.05764 5.46115 3.04261 5.41103C4.70677 5.41103 6.3609 5.41103 8.0401 5.41103C8.0401 5.21554 8.0401 5.03509 8.0401 4.84962C8.05514 3.97243 8.5614 3.30075 9.3985 3.07018C9.56892 3.02506 9.75439 3.01003 9.93484 3.01003C11.4787 3 13.0175 3 14.5614 3C15.6742 3 16.4411 3.77694 16.4511 4.88972C16.4511 5.05013 16.4511 5.21053 16.4511 5.39098C18.1153 5.39098 19.7744 5.39098 21.4637 5.39098C21.4336 5.48622 21.4135 5.55138 21.3935 5.61654C20.6817 7.75689 19.9649 9.89724 19.2531 12.0426C19.1078 12.4837 18.9373 12.609 18.4812 12.609C17.4787 12.609 16.4812 12.609 15.4787 12.609C15.4035 12.609 15.3383 12.609 15.2481 12.609ZM9.24812 5.38597C11.2632 5.38597 13.2481 5.38597 15.2481 5.38597C15.2481 5.23058 15.2481 5.09524 15.2481 4.95489C15.2481 4.41353 15.0376 4.198 14.5013 4.198C13.8095 4.198 13.1178 4.198 12.4211 4.198C11.5739 4.198 10.7268 4.198 9.88471 4.198C9.52882 4.198 9.26817 4.42356 9.24812 4.75439C9.2381 4.96491 9.24812 5.17043 9.24812 5.38597Z" fill="#ACB1C4"/>
<path d="M10.4612 12.609C11.6591 12.609 12.8371 12.609 14.0301 12.609C14.0301 13 14.0301 13.391 14.0301 13.792C12.8471 13.792 11.6541 13.792 10.4612 13.792C10.4612 13.401 10.4612 13.005 10.4612 12.609Z" fill="#ACB1C4"/>
</svg>
