<svg width="24" height="24" viewBox="0 0 24 24" fill="none" xmlns="http://www.w3.org/2000/svg">
<path d="M22.6447 6.81235C22.4034 5.48182 21.5933 4.62697 20.3214 4.39257C19.7975 4.29606 19.2632 4.22712 18.7324 4.20299L11.9556 4.00306C11.4351 4.00306 10.9181 3.99617 10.3976 4.00306C8.2432 4.04098 6.09228 4.06166 3.95171 4.33053C2.61772 4.49943 1.69393 5.29223 1.41818 6.61243C1.26306 7.34663 1.17689 8.10152 1.11829 8.85296C0.987304 10.4593 0.956281 12.0724 1.07003 13.6822C1.13897 14.6784 1.23204 15.678 1.39749 16.6604C1.61465 17.9495 2.50053 18.8009 3.74833 18.9871C4.48599 19.0974 5.23398 19.1905 5.97853 19.2146C8.26732 19.2904 10.5596 19.3594 12.8484 19.3697C15.1303 19.38 17.4156 19.3283 19.6872 19.087C20.2732 19.025 20.8522 18.9319 21.3624 18.6045C22.2104 18.0598 22.5964 17.2429 22.686 16.2847C22.8101 14.9851 22.9377 13.6856 22.979 12.3827C23.0411 10.5179 22.9756 8.65649 22.6447 6.81235ZM9.81847 14.9782C9.81847 12.7687 9.81847 10.6006 9.81847 8.39107C11.7246 9.48721 13.6101 10.573 15.537 11.6829C13.6205 12.7894 11.7384 13.8752 9.81847 14.9782Z" fill="#ACB1C4"/>
</svg>
