<svg width="135" height="21" viewBox="0 0 135 21" fill="none" xmlns="http://www.w3.org/2000/svg">
<path d="M15.88 15V8.88C15.88 7.12 14.9 6.2 13.42 6.2C11.92 6.2 10.94 7.12 10.94 8.88V15H8.14V8.88C8.14 7.12 7.16 6.2 5.68 6.2C4.16 6.2 3.18 7.12 3.18 8.88V15H0.38V3.92H3.18V5.26C3.88 4.34 5.06 3.76 6.44 3.76C8.16 3.76 9.58 4.5 10.34 5.88C11.06 4.62 12.52 3.76 14.14 3.76C16.8 3.76 18.68 5.44 18.68 8.5V15H15.88ZM26.057 11.66L28.957 3.92H31.937L25.077 20.24H22.097L24.497 14.72L20.057 3.92H23.197L26.057 11.66ZM48.9464 15V8.88C48.9464 7.12 47.9664 6.2 46.4864 6.2C44.9864 6.2 44.0064 7.12 44.0064 8.88V15H41.2064V8.88C41.2064 7.12 40.2264 6.2 38.7464 6.2C37.2264 6.2 36.2464 7.12 36.2464 8.88V15H33.4464V3.92H36.2464V5.26C36.9464 4.34 38.1264 3.76 39.5064 3.76C41.2264 3.76 42.6464 4.5 43.4064 5.88C44.1264 4.62 45.5864 3.76 47.2064 3.76C49.8664 3.76 51.7464 5.44 51.7464 8.5V15H48.9464ZM53.6834 9.42C53.6834 5.96 55.9234 3.74 58.7434 3.74C60.5234 3.74 61.7434 4.58 62.4034 5.5V3.92H65.2234V15H62.4034V13.38C61.7434 14.34 60.4834 15.18 58.7234 15.18C55.9234 15.18 53.6834 12.88 53.6834 9.42ZM62.4034 9.46C62.4034 7.36 61.0034 6.2 59.4634 6.2C57.9634 6.2 56.5434 7.32 56.5434 9.42C56.5434 11.52 57.9634 12.72 59.4634 12.72C61.0034 12.72 62.4034 11.56 62.4034 9.46ZM70.7581 9.48V15H67.9581V3.92H70.7581V5.64C71.4581 4.5 72.6181 3.76 74.1581 3.76V6.7H73.4181C71.7581 6.7 70.7581 7.34 70.7581 9.48ZM76.0441 15V0.2H78.8441V8.62L82.5641 3.92H86.2041L81.3241 9.48L86.2441 15H82.6041L78.8441 10.28V15H76.0441ZM92.4838 6.04C91.1438 6.04 90.0838 6.9 89.8638 8.42H95.1238C95.0838 6.96 93.9238 6.04 92.4838 6.04ZM97.7438 11.52C97.1438 13.56 95.3038 15.18 92.5638 15.18C89.3438 15.18 87.0037 12.94 87.0037 9.46C87.0037 5.96 89.2837 3.74 92.5638 3.74C95.7638 3.74 98.0238 5.92 98.0238 9.22C98.0238 9.58 98.0038 9.94 97.9438 10.3H89.8438C89.9838 11.94 91.1038 12.86 92.5038 12.86C93.7038 12.86 94.3638 12.26 94.7238 11.52H97.7438ZM100.508 11.56V6.22H99.1875V3.92H100.508V1.18H103.328V3.92H105.808V6.22H103.328V11.58C103.328 12.32 103.628 12.64 104.508 12.64H105.808V15H104.048C101.928 15 100.508 14.1 100.508 11.56ZM110.761 13.5C110.761 14.42 110.041 15.14 109.061 15.14C108.041 15.14 107.321 14.42 107.321 13.5C107.321 12.58 108.041 11.86 109.061 11.86C110.041 11.86 110.761 12.58 110.761 13.5ZM112.297 9.42C112.297 5.96 114.537 3.74 117.357 3.74C119.137 3.74 120.357 4.58 121.017 5.5V3.92H123.837V15H121.017V13.38C120.357 14.34 119.097 15.18 117.337 15.18C114.537 15.18 112.297 12.88 112.297 9.42ZM121.017 9.46C121.017 7.36 119.617 6.2 118.077 6.2C116.577 6.2 115.157 7.32 115.157 9.42C115.157 11.52 116.577 12.72 118.077 12.72C119.617 12.72 121.017 11.56 121.017 9.46ZM134.011 3.92V6.18L129.131 12.7H134.071V15H125.951V12.74L130.791 6.22H125.971V3.92H134.011Z" fill="white"/>
</svg>
